<svg xmlns="http://www.w3.org/2000/svg" viewBox="0 0 1080 1080"><g fill="none" stroke="#000" stroke-width="40" stroke-linecap="round"><path d="M432 601.77h316.57M432 400.59h316.57M432 802.64h316.57M864 247.13v634.56c0 31.03-25.15 56.18-56.18 56.18H272.18c-31.03 0-56.18-25.15-56.18-56.18V247.13c0-31.03 25.15-56.18 56.18-56.18h89.93v0c0 46.61 37.79 84.4 84.4 84.4h186.96c46.61 0 84.4-37.79 84.4-84.4v0h89.93c31.05-.01 56.2 25.15 56.2 56.18z"/><path d="M717.88 188.67h0c0 47.87-38.8 86.67-86.67 86.67H448.79c-47.87 0-86.67-38.8-86.67-86.67v0c0-47.87 38.8-86.67 86.67-86.67h182.42c47.87 0 86.67 38.8 86.67 86.67z"/><circle cx="332.5" cy="400.5" r="28.5"/><circle cx="332.5" cy="601.5" r="28.5"/><circle cx="332.5" cy="802.5" r="28.5"/></g></svg>