<svg xmlns="http://www.w3.org/2000/svg" viewBox="0 0 1080 1080"><g fill="none" stroke="#000" stroke-width="40" stroke-linecap="round"><path d="M245.45 540.19h233.07M245.45 292.17H599.6M245.45 787.83H599.6M478.19 541.73l-69.36 98.81 101.18-32.73 13.97-4.52L716.52 460.1v397.17c0 31.03-22.83 56.19-50.98 56.19H179.5c-28.15 0-50.98-25.16-50.98-56.19V222.73c0-31.03 22.83-56.19 50.98-56.19h486.04c28.15 0 50.98 25.16 50.98 56.19V364.5L534.54 499.82l-56.35 41.91z"/><path d="M936 296.88L716.52 460.11 523.98 603.3l-13.97 4.52-101.18 32.73 69.36-98.81 56.35-41.91L716.52 364.5l173.7-129.17c9.36-6.97 20.86-9.03 31.41-6.63 8.61 1.96 16.59 6.87 22.27 14.51 12.63 17 9.11 41.04-7.9 53.67z"/></g></svg>