<svg xmlns="http://www.w3.org/2000/svg" viewBox="0 0 1080 1080"><path d="M836.97 604.03h104c4.27 0 7.73-3.46 7.73-7.73V482.64c0-4.27-3.46-7.73-7.73-7.73H836.71c-3.55 0-6.65-2.42-7.5-5.87a296.28 296.28 0 00-29.82-75.28 7.722 7.722 0 011.27-9.25L875 310.17a7.738 7.738 0 000-10.94l-80.36-80.36a7.738 7.738 0 00-10.94 0l-70.98 70.98a7.708 7.708 0 01-9.69 1 295.876 295.876 0 00-92.59-40.19 7.704 7.704 0 01-5.88-7.5V142.23c0-4.27-3.46-7.73-7.73-7.73H483.17c-4.27 0-7.73 3.46-7.73 7.73v100.93c0 3.56-2.43 6.66-5.89 7.5a295.827 295.827 0 00-75.13 29.57c-3.01 1.69-6.78 1.16-9.23-1.28l-75.02-75.02a7.738 7.738 0 00-10.94 0l-80.36 80.36a7.738 7.738 0 000 10.94l71.41 71.41a7.722 7.722 0 01.99 9.71c-18.44 27.96-32.29 59.22-40.48 92.69-.84 3.45-3.95 5.87-7.5 5.87H139.03c-4.27 0-7.73 3.46-7.73 7.73v113.65c0 4.27 3.46 7.73 7.73 7.73h104c3.56 0 6.67 2.43 7.51 5.9 8.09 33.61 21.89 65.02 40.32 93.11 2.01 3.06 1.58 7.1-1 9.69l-70.98 70.98a7.738 7.738 0 000 10.94L299.23 875a7.738 7.738 0 0010.94 0l74.34-74.34a7.708 7.708 0 019.25-1.27 295.4 295.4 0 0075.28 29.82c3.45.84 5.87 3.95 5.87 7.5v101.06c0 4.27 3.46 7.73 7.73 7.73h113.65c4.27 0 7.73-3.46 7.73-7.73v-100.8c0-3.56 2.43-6.67 5.9-7.51 33.61-8.09 65.02-21.89 93.11-40.32 3.06-2.01 7.1-1.58 9.69 1l70.98 70.98a7.738 7.738 0 0010.94 0L875 780.77a7.738 7.738 0 000-10.94l-78.53-78.52v-.01a295.942 295.942 0 0032.99-81.37c.84-3.47 3.94-5.9 7.51-5.9zM540.13 715.01c-96.75.07-175.2-78.38-175.13-175.13.07-96.14 78.74-174.81 174.88-174.88 96.75-.07 175.2 78.38 175.13 175.13-.07 96.14-78.74 174.81-174.88 174.88z" fill="none" stroke="#000" stroke-width="40"/></svg>