<svg xmlns="http://www.w3.org/2000/svg" viewBox="0 0 1080 1080"><g fill="none" stroke="#000" stroke-width="40"><path d="M1021.5 585.66v-53.53c0-46.52-51.24-84.23-114.45-84.23H467.37c-1.16-2.14-2.36-4.25-3.6-6.35-37.85-64.18-107.71-107.24-187.62-107.24-120.21 0-217.66 97.45-217.66 217.66s97.45 217.66 217.66 217.66c89.25 0 165.96-53.73 199.55-130.6a215.215 215.215 0 0014.19-45.8h88.35c7.34 0 14.14 2.89 17.8 7.58l36.09 46.2c8.2 10.5 28.78 10.53 37.04.04l36.5-46.3c3.67-4.67 10.43-7.52 17.76-7.52h7.1c7.35 0 14.14 2.89 17.81 7.58l36.69 46.98c8.2 10.5 28.78 10.53 37.04.05l37.11-47.08c3.67-4.67 10.43-7.52 17.76-7.52h12.12c7.34 0 14.14 2.89 17.8 7.58l34.26 43.84c8.2 10.51 28.77 10.54 37.04.06l40.57-51.48c1.82-2.31 2.77-4.92 2.77-7.58z"/><circle cx="211.92" cy="550.39" r="81.22"/></g></svg>