<svg xmlns="http://www.w3.org/2000/svg" viewBox="0 0 1080 1080"><g fill="none" stroke="#000" stroke-width="40"><path d="M879.15 917.5h-678.3c-21.18 0-38.35-17.17-38.35-38.35v-678.3c0-21.18 17.17-38.35 38.35-38.35h588.79c70.61 0 127.86 57.24 127.86 127.86v588.79c0 21.18-17.17 38.35-38.35 38.35z"/><path d="M281.14 162.5v241.78c0 35.64 28.89 64.54 64.54 64.54h330.4c35.64 0 64.54-28.89 64.54-64.54V162.5"/><path d="M529.16 207.26c-10.09 0-18.27 14.05-18.27 31.38l.02 159.95c0 8.81 7.51 15.95 16.77 15.95h89.92c9.26 0 16.77-7.14 16.77-15.96V238.63c0-17.33-8.18-31.37-18.27-31.37h-86.94zM240.95 917.5l.29-377.5h595.37v377.5M329.14 645.7H748.7M330.22 797.78h419.56"/></g></svg>