<svg xmlns="http://www.w3.org/2000/svg" viewBox="0 0 1080 1080"><path fill="none" stroke="#000" stroke-width="40" d="M966.29 662.23A195.458 195.458 0 00952.67 702a189.911 189.911 0 00-4.67 41.76c0 44.32-35.92 80.24-80.24 80.24H716V663h101L636 418 456 663h99v161H293.5c-41.92 0-80.93-12.49-113.5-33.96-55.58-36.63-92.4-99.4-92.99-170.8-.94-113.76 89.22-206.32 202.97-208.21 54.89-.91 104.98 19.59 142.47 53.7 33.23-119.35 142.07-207.2 271.66-208.71 156.17-1.82 285.63 123.34 288.83 279.49.93 45.35-8.72 88.36-26.65 126.72z"/></svg>